<?xml version="1.0" encoding="UTF-8"?>
<svg width="256" height="256" viewBox="0 0 256 256" fill="none" xmlns="http://www.w3.org/2000/svg">
  <!-- Cat Body -->
  <path d="M128 32C82.4 32 44 70.4 44 116C44 161.6 82.4 200 128 200C173.6 200 212 161.6 212 116C212 70.4 173.6 32 128 32Z" fill="#F8D56F"/>
  
  <!-- Cat Face -->
  <circle cx="96" cy="96" r="16" fill="#8B4513"/>
  <circle cx="160" cy="96" r="16" fill="#8B4513"/>
  <path d="M112 128C112 128 128 144 144 128" stroke="#8B4513" stroke-width="4" stroke-linecap="round"/>
  
  <!-- Cat Ears -->
  <path d="M80 80L64 48L96 64L80 80Z" fill="#F8D56F"/>
  <path d="M176 80L192 48L160 64L176 80Z" fill="#F8D56F"/>
  
  <!-- Cat Whiskers -->
  <line x1="64" y1="128" x2="32" y2="128" stroke="#8B4513" stroke-width="2"/>
  <line x1="64" y1="136" x2="32" y2="144" stroke="#8B4513" stroke-width="2"/>
  <line x1="64" y1="120" x2="32" y2="112" stroke="#8B4513" stroke-width="2"/>
  <line x1="192" y1="128" x2="224" y2="128" stroke="#8B4513" stroke-width="2"/>
  <line x1="192" y1="136" x2="224" y2="144" stroke="#8B4513" stroke-width="2"/>
  <line x1="192" y1="120" x2="224" y2="112" stroke="#8B4513" stroke-width="2"/>
  
  <!-- Cat Collar -->
  <path d="M96 160C96 160 128 176 160 160" stroke="#D6001C" stroke-width="8" stroke-linecap="round"/>
  
  <!-- Cat Bell -->
  <circle cx="128" cy="168" r="8" fill="#F8D56F"/>
  <path d="M128 176L128 184" stroke="#8B4513" stroke-width="2"/>
</svg> 